NotoSerif-SemiBold.ufo
<glyph name="uni0191" format="2">
  <advance width="740"/>
  <unicode hex="0191"/>
  <anchor x="168" y="-10" name="bottom"/>
  <anchor x="430" y="714" name="top"/>
  <anchor x="737" y="714" name="topright"/>
  <outline>
    <contour>
      <point x="168" y="-10" type="curve" smooth="yes"/>
      <point x="301" y="-10"/>
      <point x="398" y="65"/>
      <point x="398" y="207" type="curve" smooth="yes"/>
      <point x="398" y="341" type="line"/>
      <point x="635" y="341" type="line"/>
      <point x="635" y="400" type="line"/>
      <point x="398" y="400" type="line"/>
      <point x="398" y="653" type="line"/>
      <point x="557" y="653" type="line" smooth="yes"/>
      <point x="598" y="653"/>
      <point x="625" y="631"/>
      <point x="631" y="578" type="curve" smooth="yes"/>
      <point x="636" y="530" type="line"/>
      <point x="706" y="530" type="line"/>
      <point x="701" y="714" type="line"/>
      <point x="147" y="714" type="line"/>
      <point x="147" y="661" type="line"/>
      <point x="189" y="661" type="line" smooth="yes"/>
      <point x="217" y="661"/>
      <point x="240" y="653"/>
      <point x="240" y="600" type="curve" smooth="yes"/>
      <point x="240" y="158" type="line" smooth="yes"/>
      <point x="240" y="90"/>
      <point x="212" y="49"/>
      <point x="161" y="49" type="curve" smooth="yes"/>
      <point x="114" y="49"/>
      <point x="83" y="82"/>
      <point x="83" y="183" type="curve"/>
      <point x="46" y="183"/>
      <point x="-10" y="167"/>
      <point x="-10" y="102" type="curve" smooth="yes"/>
      <point x="-10" y="40"/>
      <point x="38" y="-10"/>
    </contour>
  </outline>
</glyph>
<glyph name="uni1AB9" format="2">
  <unicode hex="1AB9"/>
  <anchor x="-444" y="78" name="_bottom"/>
  <anchor x="-444" y="-240" name="bottom"/>
  <outline>
    <contour>
      <point x="-460" y="-240" type="line"/>
      <point x="-360" y="26" type="line"/>
      <point x="-428" y="48" type="line"/>
      <point x="-528" y="-217" type="line"/>
    </contour>
  </outline>
</glyph>
<glyph name="uni1D09" format="2">
  <advance width="335"/>
  <unicode hex="1D09"/>
  <anchor x="168" y="-203" name="bottom"/>
  <anchor x="168" y="536" name="top"/>
  <outline>
    <contour>
      <point x="19" y="0" type="line"/>
      <point x="316" y="0" type="line"/>
      <point x="316" y="53" type="line"/>
      <point x="272" y="53" type="line"/>
      <point x="255" y="53"/>
      <point x="241" y="57"/>
      <point x="241" y="94" type="curve"/>
      <point x="241" y="442" type="line"/>
      <point x="241" y="479"/>
      <point x="255" y="483"/>
      <point x="272" y="483" type="curve"/>
      <point x="316" y="483" type="line"/>
      <point x="316" y="536" type="line"/>
      <point x="19" y="536" type="line"/>
      <point x="19" y="483" type="line"/>
      <point x="63" y="483" type="line"/>
      <point x="80" y="483"/>
      <point x="94" y="479"/>
      <point x="94" y="442" type="curve"/>
      <point x="94" y="94" type="line"/>
      <point x="94" y="57"/>
      <point x="80" y="53"/>
      <point x="63" y="53" type="curve"/>
      <point x="19" y="53" type="line"/>
    </contour>
    <contour>
      <point x="166" y="-203" type="curve" smooth="yes"/>
      <point x="212" y="-203"/>
      <point x="252" y="-180"/>
      <point x="252" y="-131" type="curve" smooth="yes"/>
      <point x="252" y="-80"/>
      <point x="212" y="-59"/>
      <point x="166" y="-59" type="curve" smooth="yes"/>
      <point x="118" y="-59"/>
      <point x="81" y="-80"/>
      <point x="81" y="-131" type="curve" smooth="yes"/>
      <point x="81" y="-180"/>
      <point x="118" y="-203"/>
    </contour>
  </outline>
</glyph>
<glyph name="uni1D24" format="2">
  <advance width="500"/>
  <unicode hex="1D24"/>
  <anchor x="262" y="0" name="bottom"/>
  <anchor x="251" y="760" name="top"/>
  <outline>
    <contour>
      <point x="263" y="-11" type="curve" smooth="yes"/>
      <point x="414" y="-11"/>
      <point x="477" y="59"/>
      <point x="477" y="118" type="curve" smooth="yes"/>
      <point x="477" y="174"/>
      <point x="432" y="191"/>
      <point x="348" y="191" type="curve"/>
      <point x="348" y="98"/>
      <point x="320" y="49"/>
      <point x="259" y="49" type="curve" smooth="yes"/>
      <point x="206" y="49"/>
      <point x="177" y="85"/>
      <point x="177" y="146" type="curve" smooth="yes"/>
      <point x="177" y="222"/>
      <point x="208" y="276"/>
      <point x="319" y="322" type="curve"/>
      <point x="319" y="421" type="line"/>
      <point x="434" y="469"/>
      <point x="487" y="519"/>
      <point x="487" y="610" type="curve" smooth="yes"/>
      <point x="487" y="708"/>
      <point x="396" y="770"/>
      <point x="249" y="770" type="curve" smooth="yes"/>
      <point x="97" y="770"/>
      <point x="34" y="700"/>
      <point x="34" y="641" type="curve" smooth="yes"/>
      <point x="34" y="585"/>
      <point x="79" y="568"/>
      <point x="163" y="568" type="curve"/>
      <point x="163" y="660"/>
      <point x="191" y="710"/>
      <point x="252" y="710" type="curve" smooth="yes"/>
      <point x="304" y="710"/>
      <point x="334" y="673"/>
      <point x="334" y="613" type="curve" smooth="yes"/>
      <point x="334" y="537"/>
      <point x="304" y="484"/>
      <point x="192" y="438" type="curve"/>
      <point x="192" y="338" type="line"/>
      <point x="76" y="291"/>
      <point x="23" y="240"/>
      <point x="23" y="150" type="curve" smooth="yes"/>
      <point x="23" y="51"/>
      <point x="116" y="-11"/>
    </contour>
  </outline>
</glyph>
<glyph name="uni1D7A" format="2">
  <advance width="1072"/>
  <unicode hex="1D7A"/>
  <anchor x="243" y="0" name="bottom_1"/>
  <anchor x="732" y="0" name="bottom_2"/>
  <anchor x="203" y="268" name="center_1"/>
  <anchor x="732" y="268" name="center_2"/>
  <anchor x="193" y="660" name="top_1"/>
  <anchor x="732" y="760" name="top_2"/>
  <anchor x="385" y="660" name="topright_1"/>
  <anchor x="995" y="760" name="topright_2"/>
  <outline>
    <contour>
      <point x="20" y="-110" type="line"/>
      <point x="103" y="-110" type="line"/>
      <point x="849" y="760" type="line"/>
      <point x="768" y="760" type="line"/>
    </contour>
    <component base="t"/>
    <component base="h" xOffset="398"/>
  </outline>
</glyph>
<glyph name="uni1FEF" format="2">
  <advance width="577"/>
  <unicode hex="1FEF"/>
  <anchor x="289" y="536" name="_top"/>
  <anchor x="289" y="760" name="top"/>
  <outline>
    <contour>
      <point x="302" y="590" type="curve"/>
      <point x="372" y="590" type="line"/>
      <point x="372" y="605" type="line"/>
      <point x="358" y="653"/>
      <point x="346" y="712"/>
      <point x="342" y="760" type="curve"/>
      <point x="206" y="760" type="line"/>
      <point x="206" y="748" type="line"/>
      <point x="226" y="698"/>
      <point x="260" y="642"/>
    </contour>
  </outline>
</glyph>
<glyph name="uni1FFD" format="2">
  <advance width="577"/>
  <unicode hex="1FFD"/>
  <anchor x="289" y="536" name="_top"/>
  <anchor x="289" y="760" name="top"/>
  <outline>
    <contour>
      <point x="206" y="590" type="line"/>
      <point x="276" y="590" type="line"/>
      <point x="318" y="642"/>
      <point x="352" y="698"/>
      <point x="372" y="748" type="curve"/>
      <point x="372" y="760" type="line"/>
      <point x="236" y="760" type="line"/>
      <point x="232" y="712"/>
      <point x="220" y="653"/>
      <point x="206" y="605" type="curve"/>
    </contour>
  </outline>
</glyph>
<glyph name="plussuperior" format="2">
  <advance width="400"/>
  <unicode hex="207A"/>
  <outline>
    <contour>
      <point x="166" y="309" type="line"/>
      <point x="234" y="309" type="line"/>
      <point x="234" y="450" type="line"/>
      <point x="373" y="450" type="line"/>
      <point x="373" y="513" type="line"/>
      <point x="234" y="513" type="line"/>
      <point x="234" y="654" type="line"/>
      <point x="166" y="654" type="line"/>
      <point x="166" y="513" type="line"/>
      <point x="28" y="513" type="line"/>
      <point x="28" y="450" type="line"/>
      <point x="166" y="450" type="line"/>
    </contour>
  </outline>
</glyph>
<glyph name="parenleftsuperior" format="2">
  <advance width="250"/>
  <unicode hex="207D"/>
  <outline>
    <contour>
      <point x="237" y="196" type="curve"/>
      <point x="237" y="240" type="line"/>
      <point x="143" y="303"/>
      <point x="129" y="369"/>
      <point x="129" y="491" type="curve" smooth="yes"/>
      <point x="129" y="612"/>
      <point x="143" y="682"/>
      <point x="237" y="746" type="curve"/>
      <point x="237" y="788" type="line"/>
      <point x="95" y="737"/>
      <point x="23" y="674"/>
      <point x="23" y="491" type="curve" smooth="yes"/>
      <point x="23" y="302"/>
      <point x="86" y="247"/>
    </contour>
  </outline>
</glyph>
<glyph name="uniA680" format="2">
  <advance width="708"/>
  <unicode hex="A680"/>
  <anchor x="354" y="0" name="bottom"/>
  <anchor x="354" y="714" name="top"/>
  <outline>
    <contour>
      <point x="256" y="714" type="line"/>
      <point x="327" y="714" type="line"/>
      <point x="327" y="839" type="line"/>
      <point x="256" y="839" type="line"/>
    </contour>
    <component base="afii10021"/>
  </outline>
</glyph>
<glyph name="uniA757" format="2">
  <advance width="648"/>
  <unicode hex="A757"/>
  <anchor x="324" y="-240" name="bottom"/>
  <anchor x="324" y="536" name="top"/>
  <anchor x="638" y="536" name="topright"/>
  <outline>
    <contour>
      <point x="278" y="-115" type="line"/>
      <point x="646" y="-115" type="line"/>
      <point x="646" y="-58" type="line"/>
      <point x="278" y="-58" type="line"/>
    </contour>
    <component base="q"/>
  </outline>
</glyph>
<glyph name="uniA764" format="2">
  <advance width="638"/>
  <unicode hex="A764"/>
  <outline>
    <contour>
      <point x="28" y="0" type="line"/>
      <point x="373" y="0" type="line"/>
      <point x="373" y="53" type="line"/>
      <point x="332" y="53" type="line" smooth="yes"/>
      <point x="304" y="53"/>
      <point x="279" y="60"/>
      <point x="279" y="113" type="curve" smooth="yes"/>
      <point x="279" y="157" type="line"/>
      <point x="313" y="157" type="line" smooth="yes"/>
      <point x="529" y="157"/>
      <point x="608" y="239"/>
      <point x="608" y="334" type="curve" smooth="yes"/>
      <point x="608" y="439"/>
      <point x="520" y="496"/>
      <point x="335" y="498" type="curve" smooth="yes"/>
      <point x="279" y="498" type="line"/>
      <point x="279" y="554" type="line"/>
      <point x="373" y="554" type="line"/>
      <point x="373" y="611" type="line"/>
      <point x="280" y="611" type="line"/>
      <point x="281" y="646"/>
      <point x="304" y="661"/>
      <point x="332" y="661" type="curve" smooth="yes"/>
      <point x="373" y="661" type="line"/>
      <point x="373" y="714" type="line"/>
      <point x="28" y="714" type="line"/>
      <point x="28" y="661" type="line"/>
      <point x="70" y="661" type="line" smooth="yes"/>
      <point x="98" y="661"/>
      <point x="120" y="645"/>
      <point x="119" y="611" type="curve"/>
      <point x="28" y="611" type="line"/>
      <point x="28" y="554" type="line"/>
      <point x="121" y="554" type="line"/>
      <point x="121" y="118" type="line" smooth="yes"/>
      <point x="121" y="61"/>
      <point x="99" y="53"/>
      <point x="70" y="53" type="curve" smooth="yes"/>
      <point x="28" y="53" type="line"/>
    </contour>
    <contour>
      <point x="279" y="215" type="line"/>
      <point x="279" y="439" type="line"/>
      <point x="318" y="439" type="line" smooth="yes"/>
      <point x="407" y="439"/>
      <point x="440" y="408"/>
      <point x="440" y="331" type="curve" smooth="yes"/>
      <point x="440" y="244"/>
      <point x="402" y="215"/>
      <point x="303" y="215" type="curve" smooth="yes"/>
    </contour>
  </outline>
</glyph>
<glyph name="uniA7A1" format="2">
  <advance width="560"/>
  <unicode hex="A7A1"/>
  <anchor x="280" y="-240" name="bottom"/>
  <anchor x="280" y="536" name="top"/>
  <anchor x="550" y="536" name="topright"/>
  <outline>
    <contour>
      <point x="10" y="289" type="line"/>
      <point x="529" y="384" type="line"/>
      <point x="529" y="438" type="line"/>
      <point x="10" y="342" type="line"/>
    </contour>
    <component base="g"/>
  </outline>
</glyph>
<glyph name="uniA7AE" format="2">
  <advance width="575"/>
  <unicode hex="A7AE"/>
  <outline>
    <contour>
      <point x="30" y="0" type="line"/>
      <point x="545" y="0" type="line"/>
      <point x="551" y="171" type="line"/>
      <point x="482" y="171" type="line"/>
      <point x="478" y="138" type="line" smooth="yes"/>
      <point x="470" y="75"/>
      <point x="458" y="57"/>
      <point x="421" y="57" type="curve" smooth="yes"/>
      <point x="364" y="57" type="line"/>
      <point x="364" y="657" type="line"/>
      <point x="421" y="657" type="line" smooth="yes"/>
      <point x="458" y="657"/>
      <point x="470" y="639"/>
      <point x="478" y="576" type="curve" smooth="yes"/>
      <point x="482" y="543" type="line"/>
      <point x="551" y="543" type="line"/>
      <point x="545" y="714" type="line"/>
      <point x="30" y="714" type="line"/>
      <point x="24" y="543" type="line"/>
      <point x="93" y="543" type="line"/>
      <point x="97" y="576" type="line" smooth="yes"/>
      <point x="105" y="639"/>
      <point x="117" y="657"/>
      <point x="154" y="657" type="curve" smooth="yes"/>
      <point x="212" y="657" type="line"/>
      <point x="212" y="57" type="line"/>
      <point x="154" y="57" type="line" smooth="yes"/>
      <point x="117" y="57"/>
      <point x="105" y="75"/>
      <point x="97" y="138" type="curve" smooth="yes"/>
      <point x="93" y="171" type="line"/>
      <point x="24" y="171" type="line"/>
    </contour>
  </outline>
</glyph>
<glyph name="uniA7FF" format="2">
  <advance width="1030"/>
  <unicode hex="A7FF"/>
  <outline>
    <contour>
      <point x="8" y="0" type="line"/>
      <point x="237" y="0" type="line"/>
      <point x="237" y="53" type="line"/>
      <point x="230" y="53" type="line" smooth="yes"/>
      <point x="186" y="53"/>
      <point x="164" y="68"/>
      <point x="164" y="102" type="curve" smooth="yes"/>
      <point x="164" y="113"/>
      <point x="168" y="135"/>
      <point x="173" y="152" type="curve" smooth="yes"/>
      <point x="202" y="248" type="line" smooth="yes"/>
      <point x="217" y="296"/>
      <point x="226" y="322"/>
      <point x="232" y="355" type="curve"/>
      <point x="235" y="355" type="line"/>
      <point x="241" y="330"/>
      <point x="250" y="299"/>
      <point x="266" y="250" type="curve" smooth="yes"/>
      <point x="347" y="0" type="line"/>
      <point x="452" y="0" type="line"/>
      <point x="567" y="332" type="line"/>
      <point x="676" y="0" type="line"/>
      <point x="784" y="0" type="line"/>
      <point x="913" y="405" type="line" smooth="yes"/>
      <point x="934" y="470"/>
      <point x="949" y="483"/>
      <point x="988" y="483" type="curve" smooth="yes"/>
      <point x="1001" y="483" type="line"/>
      <point x="1001" y="536" type="line"/>
      <point x="772" y="536" type="line"/>
      <point x="772" y="483" type="line"/>
      <point x="779" y="483" type="line" smooth="yes"/>
      <point x="823" y="483"/>
      <point x="845" y="468"/>
      <point x="845" y="434" type="curve" smooth="yes"/>
      <point x="845" y="423"/>
      <point x="841" y="401"/>
      <point x="836" y="384" type="curve" smooth="yes"/>
      <point x="792" y="238" type="line" smooth="yes"/>
      <point x="777" y="188"/>
      <point x="771" y="164"/>
      <point x="765" y="131" type="curve"/>
      <point x="762" y="131" type="line"/>
      <point x="758" y="156"/>
      <point x="752" y="188"/>
      <point x="736" y="236" type="curve" smooth="yes"/>
      <point x="638" y="531" type="line"/>
      <point x="573" y="531" type="line"/>
      <point x="471" y="246" type="line" smooth="yes"/>
      <point x="454" y="197"/>
      <point x="445" y="164"/>
      <point x="439" y="131" type="curve"/>
      <point x="436" y="131" type="line"/>
      <point x="428" y="164"/>
      <point x="411" y="218"/>
      <point x="401" y="249" type="curve" smooth="yes"/>
      <point x="309" y="536" type="line"/>
      <point x="229" y="536" type="line"/>
      <point x="96" y="131" type="line" smooth="yes"/>
      <point x="75" y="66"/>
      <point x="60" y="53"/>
      <point x="21" y="53" type="curve" smooth="yes"/>
      <point x="8" y="53" type="line"/>
    </contour>
  </outline>
</glyph>
<glyph name="uniAB3F" format="2">
  <advance width="527"/>
  <unicode hex="AB3F"/>
  <anchor x="243" y="541" name="bottom"/>
  <anchor x="243" y="5" name="top"/>
  <anchor x="20" y="5" name="topright"/>
  <outline>
    <contour>
      <point x="-1" y="-40" type="line"/>
      <point x="65" y="-40" type="line"/>
      <point x="445" y="576" type="line"/>
      <point x="379" y="576" type="line"/>
    </contour>
    <component base="c" xScale="-1" yScale="-1" xOffset="527" yOffset="541"/>
  </outline>
</glyph>
<glyph name="uniAB60" format="2">
  <advance width="941"/>
  <unicode hex="AB60"/>
  <outline>
    <contour>
      <point x="375" y="0" type="line"/>
      <point x="691" y="0" type="line" smooth="yes"/>
      <point x="815" y="0"/>
      <point x="916" y="49"/>
      <point x="916" y="157" type="curve" smooth="yes"/>
      <point x="916" y="272"/>
      <point x="826" y="305"/>
      <point x="686" y="305" type="curve" smooth="yes"/>
      <point x="610" y="305" type="line"/>
      <point x="610" y="418" type="line" smooth="yes"/>
      <point x="610" y="465"/>
      <point x="648" y="479"/>
      <point x="692" y="479" type="curve" smooth="yes"/>
      <point x="705" y="479" type="line"/>
      <point x="705" y="536" type="line"/>
      <point x="375" y="536" type="line"/>
      <point x="375" y="483" type="line"/>
      <point x="386" y="483" type="line" smooth="yes"/>
      <point x="433" y="483"/>
      <point x="458" y="464"/>
      <point x="458" y="418" type="curve" smooth="yes"/>
      <point x="458" y="117" type="line" smooth="yes"/>
      <point x="458" y="75"/>
      <point x="435" y="53"/>
      <point x="386" y="53" type="curve" smooth="yes"/>
      <point x="375" y="53" type="line"/>
    </contour>
    <contour>
      <point x="17" y="0" type="line"/>
      <point x="330" y="0" type="line"/>
      <point x="330" y="53" type="line"/>
      <point x="318" y="53" type="line" smooth="yes"/>
      <point x="291" y="53"/>
      <point x="252" y="61"/>
      <point x="252" y="118" type="curve" smooth="yes"/>
      <point x="252" y="418" type="line" smooth="yes"/>
      <point x="252" y="475"/>
      <point x="291" y="483"/>
      <point x="318" y="483" type="curve" smooth="yes"/>
      <point x="330" y="483" type="line"/>
      <point x="330" y="536" type="line"/>
      <point x="17" y="536" type="line"/>
      <point x="17" y="483" type="line"/>
      <point x="29" y="483" type="line" smooth="yes"/>
      <point x="58" y="483"/>
      <point x="100" y="475"/>
      <point x="100" y="418" type="curve" smooth="yes"/>
      <point x="100" y="118" type="line" smooth="yes"/>
      <point x="100" y="61"/>
      <point x="58" y="53"/>
      <point x="29" y="53" type="curve" smooth="yes"/>
      <point x="17" y="53" type="line"/>
    </contour>
    <contour>
      <point x="610" y="58" type="line"/>
      <point x="610" y="247" type="line"/>
      <point x="661" y="247" type="line" smooth="yes"/>
      <point x="722" y="247"/>
      <point x="757" y="223"/>
      <point x="757" y="160" type="curve" smooth="yes"/>
      <point x="757" y="93"/>
      <point x="737" y="58"/>
      <point x="665" y="58" type="curve" smooth="yes"/>
    </contour>
  </outline>
</glyph>
<glyph name="uniFE20" format="2">
  <unicode hex="FE20"/>
  <anchor x="2" y="536" name="_top"/>
  <outline>
    <contour>
      <point x="-386" y="593" type="curve"/>
      <point x="-320" y="593" type="line"/>
      <point x="-245" y="684"/>
      <point x="-154" y="714"/>
      <point x="2" y="714" type="curve"/>
      <point x="2" y="796" type="line"/>
      <point x="-10" y="796" type="line" smooth="yes"/>
      <point x="-185" y="796"/>
      <point x="-320" y="730"/>
    </contour>
  </outline>
</glyph>
<glyph name="uniFE23" format="2">
  <unicode hex="FE23"/>
  <anchor x="-3" y="536" name="_top"/>
  <outline>
    <contour>
      <point x="196" y="597" type="curve" smooth="yes"/>
      <point x="315" y="597"/>
      <point x="364" y="666"/>
      <point x="384" y="742" type="curve"/>
      <point x="324" y="742" type="line"/>
      <point x="300" y="690"/>
      <point x="261" y="670"/>
      <point x="195" y="670" type="curve" smooth="yes"/>
      <point x="118" y="670"/>
      <point x="68" y="691"/>
      <point x="-3" y="709" type="curve"/>
      <point x="-3" y="627" type="line"/>
      <point x="57" y="612"/>
      <point x="126" y="597"/>
    </contour>
  </outline>
</glyph>
<glyph name="uniFE27" format="2">
  <unicode hex="FE27"/>
  <anchor x="0" y="0" name="_bottom"/>
  <anchor x="-197" y="536" name="braceleft"/>
  <outline>
    <contour>
      <point x="0" y="-213" type="curve"/>
      <point x="0" y="-141" type="line"/>
      <point x="-164" y="-141"/>
      <point x="-277" y="-104"/>
      <point x="-333" y="-26" type="curve"/>
      <point x="-393" y="-26" type="line"/>
      <point x="-317" y="-161"/>
      <point x="-189" y="-213"/>
    </contour>
  </outline>
</glyph>
<glyph name="uniFE29" format="2">
  <unicode hex="FE29"/>
  <anchor x="0" y="0" name="_bottom"/>
  <anchor x="-199" y="536" name="braceleft"/>
  <outline>
    <contour>
      <point x="-398" y="-202" type="curve"/>
      <point x="-342" y="-202" type="line"/>
      <point x="-328" y="-177"/>
      <point x="-309" y="-159"/>
      <point x="-287" y="-148" type="curve" smooth="yes"/>
      <point x="-266" y="-138"/>
      <point x="-243" y="-133"/>
      <point x="-216" y="-133" type="curve" smooth="yes"/>
      <point x="-167" y="-133"/>
      <point x="-103" y="-146"/>
      <point x="0" y="-172" type="curve"/>
      <point x="0" y="-92" type="line"/>
      <point x="-76" y="-71"/>
      <point x="-148" y="-61"/>
      <point x="-213" y="-61" type="curve" smooth="yes"/>
      <point x="-309" y="-61"/>
      <point x="-375" y="-113"/>
    </contour>
  </outline>
</glyph>
<glyph name="uniFE2A" format="2">
  <unicode hex="FE2A"/>
  <anchor x="0" y="0" name="_bottom"/>
  <anchor x="199" y="536" name="braceleft"/>
  <outline>
    <contour>
      <point x="213" y="-202" type="curve" smooth="yes"/>
      <point x="309" y="-202"/>
      <point x="375" y="-150"/>
      <point x="398" y="-61" type="curve"/>
      <point x="342" y="-61" type="line"/>
      <point x="328" y="-86"/>
      <point x="309" y="-104"/>
      <point x="287" y="-115" type="curve" smooth="yes"/>
      <point x="266" y="-125"/>
      <point x="243" y="-130"/>
      <point x="216" y="-130" type="curve" smooth="yes"/>
      <point x="167" y="-130"/>
      <point x="103" y="-117"/>
      <point x="0" y="-91" type="curve"/>
      <point x="0" y="-171" type="line"/>
      <point x="76" y="-192"/>
      <point x="148" y="-202"/>
    </contour>
  </outline>
</glyph>
<glyph name="uniFE2E" format="2">
  <unicode hex="FE2E"/>
  <anchor x="-86" y="536" name="_top"/>
  <outline>
    <contour>
      <point x="-86" y="568" type="curve" smooth="yes"/>
      <point x="-55" y="568"/>
      <point x="-40" y="588"/>
      <point x="-36" y="616" type="curve"/>
      <point x="137" y="616" type="line"/>
      <point x="137" y="679" type="line"/>
      <point x="-85" y="679" type="line" smooth="yes"/>
      <point x="-122" y="679"/>
      <point x="-137" y="658"/>
      <point x="-137" y="622" type="curve" smooth="yes"/>
      <point x="-137" y="586"/>
      <point x="-122" y="568"/>
    </contour>
  </outline>
</glyph>
<glyph name="uniFE2F" format="2">
  <unicode hex="FE2F"/>
  <anchor x="86" y="536" name="_top"/>
  <outline>
    <contour>
      <point x="-137" y="616" type="line"/>
      <point x="85" y="616" type="line" smooth="yes"/>
      <point x="122" y="616"/>
      <point x="137" y="637"/>
      <point x="137" y="673" type="curve" smooth="yes"/>
      <point x="137" y="709"/>
      <point x="122" y="727"/>
      <point x="86" y="727" type="curve" smooth="yes"/>
      <point x="55" y="727"/>
      <point x="40" y="707"/>
      <point x="36" y="679" type="curve"/>
      <point x="-137" y="679" type="line"/>
    </contour>
  </outline>
</glyph>
<glyph name="macronacute" format="2">
  <advance width="500"/>
  <outline>
    <contour>
      <point x="203" y="726" type="line"/>
      <point x="262" y="726" type="line"/>
      <point x="318" y="759"/>
      <point x="392" y="836"/>
      <point x="415" y="867" type="curve"/>
      <point x="415" y="876" type="line"/>
      <point x="276" y="876" type="line"/>
      <point x="262" y="840"/>
      <point x="228" y="772"/>
      <point x="203" y="738" type="curve"/>
    </contour>
    <contour>
      <point x="105" y="606" type="line"/>
      <point x="395" y="606" type="line"/>
      <point x="395" y="685" type="line"/>
      <point x="105" y="685" type="line"/>
    </contour>
  </outline>
</glyph>
